Coordinates
version=1
nRows=8
nColumns=40
inDegrees=yes

Units are S.I. units (second, meters, Newtons, ...)
Angles are in degrees.

endheader
time	pelvis_tilt	pelvis_list	pelvis_rotation	pelvis_tx	pelvis_ty	pelvis_tz	hip_flexion_r	hip_adduction_r	hip_rotation_r	knee_angle_r	knee_angle_r_beta	ankle_angle_r	subtalar_angle_r	mtp_angle_r	hip_flexion_l	hip_adduction_l	hip_rotation_l	knee_angle_l	knee_angle_l_beta	ankle_angle_l	subtalar_angle_l	mtp_angle_l	lumbar_extension	lumbar_bending	lumbar_rotation	arm_flex_r	arm_add_r	arm_rot_r	elbow_flex_r	pro_sup_r	wrist_flex_r	wrist_dev_r	arm_flex_l	arm_add_l	arm_rot_l	elbow_flex_l	pro_sup_l	wrist_flex_l	wrist_dev_l
     54.76750000	     -2.32207261	     -4.72459136	      4.13016972	      0.97715895	      0.93359365	      0.47201925	      5.78471709	      4.64868864	    -16.00287393	     11.75507471	     11.75507471	     10.77855567	     -0.14620884	     -6.19311515	     33.00542495	     -9.89544522	      1.26004400	     45.96238585	     45.96238585	     11.82775022	    -18.57062508	     14.91481784	     -9.55201000	      6.04595105	      4.41146592	     13.66392947	    -16.37811506	     -6.66874159	     49.38100929	     45.64314725	      0.00000000	      0.00000000	      8.15571731	     -6.29725579	     -2.78829813	     48.50560619	     46.53146263	      0.00000000	      0.00000000
     54.77957143	     -2.46197700	     -4.65502066	      4.38490673	      0.97578471	      0.93328612	      0.47172878	      5.30448864	      4.65087600	    -16.10202010	     11.34939445	     11.34939445	     10.96666948	     -0.12319981	     -6.24334962	     33.27640763	     -9.37238370	      1.40207896	     42.20158334	     42.20158334	     11.62016263	    -18.22469416	     15.08607077	     -9.57795799	      5.95044573	      3.82185649	     16.04587684	    -16.14504237	     -6.84607346	     51.44345013	     45.58782341	      0.00000000	      0.00000000	      7.04038857	     -6.36195974	     -2.50923640	     46.44407860	     46.47040250	      0.00000000	      0.00000000
     54.79164286	     -2.62596915	     -4.70799194	      4.62074422	      0.97455609	      0.93274661	      0.47135692	      4.82749167	      4.75125189	    -16.44940816	     10.91011977	     10.91011977	     11.11919612	      0.33628650	     -6.53774737	     33.44974168	     -9.00226035	      1.51028446	     38.31866181	     38.31866181	     10.79189876	    -17.72001903	     13.45579913	     -9.51823732	      6.04458669	      4.15422847	     17.28039367	    -16.61479673	     -6.95142179	     55.11257856	     45.46713802	      0.00000000	      0.00000000	      7.54875975	     -5.81573228	     -2.08174917	     41.04568164	     46.37618511	      0.00000000	      0.00000000
     54.80371429	     -2.75146207	     -4.77579999	      4.85595424	      0.97346078	      0.93214739	      0.47092452	      4.32050039	      4.89019428	    -16.60791780	     10.50595851	     10.50595851	     11.33803370	      0.49486783	     -6.59037399	     33.57591722	     -8.63557633	      1.66783707	     34.65152280	     34.65152280	     10.61684638	    -16.78878006	     13.44132972	     -9.52535240	      6.12673637	      3.55823763	     19.64012342	    -16.25698471	     -7.22638999	     57.45173638	     45.40822376	      0.00000000	      0.00000000	      6.48071722	     -5.86495860	     -1.77561295	     38.95292375	     46.31025757	      0.00000000	      0.00000000
     54.81578571	     -2.91399132	     -4.86446828	      5.03534126	      0.97254844	      0.93140644	      0.47041806	      3.83710140	      5.01766674	    -16.93374427	     10.10129892	     10.10129892	     11.58748088	      1.03984364	     -6.67361075	     33.60359343	     -8.36875011	      1.59276044	     30.97823278	     30.97823278	      9.83916949	    -15.58510270	     11.77717630	     -9.45438989	      6.25193949	      4.08070333	     20.71985901	    -16.63969351	     -7.88714445	     61.24178548	     45.31878866	      0.00000000	      0.00000000	      6.93279989	     -5.42161609	     -0.98303255	     34.10043522	     46.17298332	      0.00000000	      0.00000000
     54.82785714	     -3.01781970	     -4.97676708	      5.21430421	      0.97181657	      0.93067921	      0.46993895	      3.27199690	      5.20271237	    -17.13348246	      9.67518008	      9.67518008	     11.81827352	      1.37233860	     -6.73070333	     33.64522566	     -8.16405685	      1.45285626	     27.78841048	     27.78841048	      9.86523008	    -13.87250383	     12.01440915	     -9.44736944	      6.37122607	      3.56571674	     23.08193372	    -16.19847213	     -8.04543911	     63.27426949	     45.26806319	      0.00000000	      0.00000000	      5.82464777	     -5.49214298	     -0.68586195	     32.38996163	     46.10986280	      0.00000000	      0.00000000
     54.83992857	     -3.30515779	     -5.31883813	      5.32701647	      0.97100910	      0.92940939	      0.46942989	      3.05399973	      5.58375482	    -17.24181162	      9.47777053	      9.47777053	     12.07213711	      1.52674758	     -6.84210883	     34.08243264	     -8.15217814	      1.49565076	     25.21316720	     25.21316720	      9.79977547	    -12.47501033	     12.35126468	     -9.18391814	      6.76088455	      3.81965168	     25.23803031	    -16.59756127	     -8.28948219	     64.48810330	     45.24676637	      0.00000000	      0.00000000	      4.75124626	     -5.32664167	     -0.54845943	     31.48908759	     46.07317773	      0.00000000	      0.00000000
     54.85200000	     -3.22747716	     -5.22792179	      5.48956276	      0.97087945	      0.92905127	      0.46874955	      2.09377124	      5.58788362	    -17.50012977	      8.79847008	      8.79847008	     12.30503193	      2.20396127	     -6.79393091	     33.74034910	     -7.89319741	      0.69141594	     22.55820740	     22.55820740	      9.74083662	    -10.29678668	     12.54163232	     -9.36257112	      6.65196195	      2.79684270	     27.39863846	    -15.35316318	     -8.18231410	     67.24565206	     45.16035611	      0.00000000	      0.00000000	      3.81186754	     -5.58738069	     -0.05675200	     28.90675439	     45.98660783	      0.00000000	      0.00000000
